<?xml version="1.0" encoding="UTF-8" standalone="no"?>
<svg
   xmlns:osb="http://www.openswatchbook.org/uri/2009/osb"
   xmlns:dc="http://purl.org/dc/elements/1.1/"
   xmlns:cc="http://creativecommons.org/ns#"
   xmlns:rdf="http://www.w3.org/1999/02/22-rdf-syntax-ns#"
   xmlns:svg="http://www.w3.org/2000/svg"
   xmlns="http://www.w3.org/2000/svg"
   xmlns:xlink="http://www.w3.org/1999/xlink"
   xmlns:sodipodi="http://sodipodi.sourceforge.net/DTD/sodipodi-0.dtd"
   xmlns:inkscape="http://www.inkscape.org/namespaces/inkscape"
   id="svg3159"
   sodipodi:docname="green.svg"
   viewBox="0 0 1000 800"
   version="1.1"
   inkscape:version="1.0.1 (3bc2e813f5, 2020-09-07)">
  <title
     id="title4820">Air pollution</title>
  <defs
     id="defs3161">
    <linearGradient
       id="linearGradient1051"
       osb:paint="gradient">
      <stop
         id="stop1047"
         style="stop-color:#07ff09;stop-opacity:1;"
         offset="0" />
      <stop
         id="stop1049"
         style="stop-color:#158b00;stop-opacity:1"
         offset="1" />
    </linearGradient>
    <linearGradient
       id="linearGradient4538"
       inkscape:collect="always">
      <stop
         id="stop4540"
         style="stop-color:#41ffff;stop-opacity:1"
         offset="0" />
      <stop
         id="stop4542"
         style="stop-color:#ffffff;stop-opacity:1"
         offset="1" />
    </linearGradient>
    <linearGradient
       id="linearGradient4015"
       inkscape:collect="always"
       osb:paint="gradient">
      <stop
         id="stop4017"
         style="stop-color:#aefeff;stop-opacity:1;"
         offset="0" />
      <stop
         id="stop4019"
         style="stop-color:#bef6ee;stop-opacity:1"
         offset="1" />
    </linearGradient>
    <linearGradient
       id="linearGradient3997"
       inkscape:collect="always">
      <stop
         id="stop3999"
         style="stop-color:#ffffff;stop-opacity:1"
         offset="0" />
      <stop
         id="stop4001"
         style="stop-color:#ffffff;stop-opacity:1"
         offset="1" />
    </linearGradient>
    <linearGradient
       id="linearGradient4003"
       y2="9.8848"
       xlink:href="#linearGradient3997"
       gradientUnits="userSpaceOnUse"
       x2="-739.43"
       gradientTransform="translate(-573.77 -4.0406)"
       y1="-10.318"
       x1="-359.61"
       inkscape:collect="always" />
    <filter
       id="filter4039"
       height="2.1872"
       width="1.3492"
       color-interpolation-filters="sRGB"
       y="-.59362"
       x="-.17462"
       inkscape:collect="always">
      <feGaussianBlur
         id="feGaussianBlur4041"
         stdDeviation="63.308998"
         inkscape:collect="always" />
    </filter>
    <filter
       id="filter4076"
       height="3.9659"
       width="1.412"
       color-interpolation-filters="sRGB"
       y="-1.483"
       x="-.20598"
       inkscape:collect="always">
      <feGaussianBlur
         id="feGaussianBlur4078"
         stdDeviation="67.586861"
         inkscape:collect="always" />
    </filter>
    <filter
       id="filter4084"
       height="2.1807"
       width="1.1202"
       color-interpolation-filters="sRGB"
       y="-.59036"
       x="-.060098"
       inkscape:collect="always">
      <feGaussianBlur
         id="feGaussianBlur4086"
         stdDeviation="16.720185"
         inkscape:collect="always" />
    </filter>
    <filter
       id="filter4096"
       height="2.051"
       width="1.6068"
       color-interpolation-filters="sRGB"
       y="-.52552"
       x="-.30339"
       inkscape:collect="always">
      <feGaussianBlur
         id="feGaussianBlur4098"
         stdDeviation="109.96411"
         inkscape:collect="always" />
    </filter>
    <filter
       id="filter4214"
       inkscape:collect="always"
       color-interpolation-filters="sRGB">
      <feGaussianBlur
         id="feGaussianBlur4216"
         stdDeviation="20.010824"
         inkscape:collect="always" />
    </filter>
    <filter
       id="filter4230"
       inkscape:collect="always"
       color-interpolation-filters="sRGB">
      <feGaussianBlur
         id="feGaussianBlur4232"
         stdDeviation="8.3636797"
         inkscape:collect="always" />
    </filter>
    <filter
       id="filter4266"
       height="1.7353"
       width="1.5039"
       color-interpolation-filters="sRGB"
       y="-.36766"
       x="-.25194"
       inkscape:collect="always">
      <feGaussianBlur
         id="feGaussianBlur4268"
         stdDeviation="87.406152"
         inkscape:collect="always" />
    </filter>
    <filter
       id="filter4312"
       inkscape:collect="always"
       color-interpolation-filters="sRGB">
      <feGaussianBlur
         id="feGaussianBlur4314"
         stdDeviation="6.0846526"
         inkscape:collect="always" />
    </filter>
    <filter
       id="filter4534"
       height="1.9022"
       width="1.5208"
       color-interpolation-filters="sRGB"
       y="-.45109"
       x="-.26042"
       inkscape:collect="always">
      <feGaussianBlur
         id="feGaussianBlur4536"
         stdDeviation="94.390835"
         inkscape:collect="always" />
    </filter>
    <linearGradient
       id="linearGradient4544"
       y2="146.97"
       xlink:href="#linearGradient4538"
       gradientUnits="userSpaceOnUse"
       x2="-1285.6"
       y1="197.98"
       x1="-1018.2"
       inkscape:collect="always" />
    <filter
       id="filter4546"
       inkscape:collect="always"
       color-interpolation-filters="sRGB">
      <feGaussianBlur
         id="feGaussianBlur4548"
         stdDeviation="1.6090012"
         inkscape:collect="always" />
    </filter>
    <linearGradient
       id="linearGradient4702"
       y2="377.57999"
       xlink:href="#linearGradient1051"
       gradientUnits="userSpaceOnUse"
       x2="-1074.8"
       gradientTransform="matrix(0.46736,0,0,0.1591,934.49,-1012.5)"
       y1="-30.521"
       x1="-197.99001"
       inkscape:collect="always" />
    <filter
       id="filter4766"
       height="1.596"
       width="1.3441"
       color-interpolation-filters="sRGB"
       y="-.29801"
       x="-.17204"
       inkscape:collect="always">
      <feGaussianBlur
         id="feGaussianBlur4768"
         stdDeviation="62.358368"
         inkscape:collect="always" />
    </filter>
    <linearGradient
       inkscape:collect="always"
       xlink:href="#linearGradient4015"
       id="linearGradient1045"
       gradientUnits="userSpaceOnUse"
       gradientTransform="matrix(.46842 0 0 .48366 938.95 373.13)"
       x1="-197.99"
       y1="-30.521"
       x2="-1074.8"
       y2="377.58" />
    <linearGradient
       inkscape:collect="always"
       xlink:href="#linearGradient3997"
       id="linearGradient1053"
       gradientUnits="userSpaceOnUse"
       x1="-1644.5"
       y1="175.55"
       x2="-1301.1"
       y2="171.50999" />
    <linearGradient
       inkscape:collect="always"
       xlink:href="#linearGradient3997"
       id="linearGradient1055"
       gradientUnits="userSpaceOnUse"
       gradientTransform="matrix(-1.7453,0,0,-0.12929,-1683,634.72)"
       x1="-4.0405998"
       y1="409.91"
       x2="-282.84"
       y2="434.14999" />
    <filter
       inkscape:collect="always"
       style="color-interpolation-filters:sRGB"
       id="filter1181"
       x="-0.3444074"
       width="1.6888148"
       y="-0.52081496"
       height="2.0416299">
      <feGaussianBlur
         inkscape:collect="always"
         stdDeviation="48.185115"
         id="feGaussianBlur1183" />
    </filter>
  </defs>
  <sodipodi:namedview
     id="base"
     bordercolor="#666666"
     inkscape:pageshadow="2"
     inkscape:window-y="0"
     pagecolor="#ffffff"
     inkscape:window-height="1017"
     inkscape:window-maximized="1"
     inkscape:zoom="0.47712832"
     inkscape:window-x="0"
     showgrid="false"
     borderopacity="1.0"
     inkscape:current-layer="layer1"
     inkscape:cx="702.72238"
     inkscape:cy="395.19854"
     inkscape:window-width="1920"
     inkscape:pageopacity="0.0"
     inkscape:document-units="px"
     inkscape:document-rotation="0" />
  <g
     id="layer1"
     inkscape:label="Layer 1"
     inkscape:groupmode="layer"
     transform="translate(0 -252.36)">
    <rect
       id="rect4718"
       style="opacity:.59024;stroke:#bca7bc;stroke-linecap:round;stroke-width:.49583;fill:#0e232e"
       transform="scale(1,-1)"
       height="169.48"
       width="884.01"
       y="-1051.1"
       x="59.924" />
    <rect
       id="rect4566"
       style="opacity:0.59024;stroke:#bca7bc;stroke-linecap:round;stroke-width:0.54537;fill:url(#linearGradient4702);fill-opacity:1.0"
       transform="scale(1,-1)"
       height="203.79"
       width="889.44"
       y="-1052.1"
       x="54.486" />
    <rect
       id="rect4013"
       style="stroke:#bca7bc;stroke-linecap:round;stroke-width:0.952;fill:url(#linearGradient1045);stroke-miterlimit:4;stroke-dasharray:none;fill-opacity:1"
       height="619.5"
       width="891.46"
       y="252.84"
       x="56.957" />
    <path
       id="path4524"
       style="filter:url(#filter4534);stroke:#bca7bc;stroke-linecap:round;stroke-width:0.83868;fill:#fffffe;fill-opacity:1"
       d="m-1527.9-176.56c349.1 251.33 579.93 0 869.89 0-307.44 157.79-380.52 322.91 0 502.2l-311.74-109.1-558.15 109.09c75.472-162.01 340.87-310.45 0-502.2z"
       sodipodi:nodetypes="cccccc"
       transform="matrix(-.29780 0 0 .14803 -60.876 573.63)"
       inkscape:connector-curvature="0" />
    <path
       id="path4262"
       style="filter:url(#filter4266);stroke:#bca7bc;stroke-linecap:round;stroke-width:0.83868;fill:#ffffff;fill-opacity:1"
       d="m-1490.7-130.98c221.77 228.53 542.66-45.584 832.63-45.584-307.44 157.79-380.52 322.91 0 502.2l-311.68-109.1-511.55 177.47c-20.802-215.19 14.785-67.333-9.3168-524.99z"
       sodipodi:nodetypes="cccccc"
       transform="matrix(.58021 0 0 .078740 986.7 760.5)"
       inkscape:connector-curvature="0" />
    <path
       id="path3966"
       style="opacity:0.77073;filter:url(#filter4076);stroke:#000000;stroke-width:0.628;fill:#ffffff;fill-opacity:1"
       d="m-839.59 138.49c-4.1688-10.761-27.47-25.029-4.3556-32.528 34.779-11.284 98.368-1.0003 143.73 4.4357 19.745 2.366 32.061 9.9637 52.267 11.828 49.115 4.533 110.59-12.79 152.44-2.9571 20.012 4.7018 0 22.178 21.778 23.657 21.778 1.4786 153.83 5.1794 230.84 7.3928 58.029 1.6678 154.57-14.175 174.22 4.4357 15.591 14.767-58.606 25.679-100.18 32.528-130.6 21.515-409.42 26.614-431.2 20.7-21.778-5.9142-150.72 6.5823-200.36-8.8714-44.914-13.983-31.254-40.109-39.2-60.621z"
       sodipodi:nodetypes="ssssssssssss"
       inkscape:connector-curvature="0"
       transform="matrix(.47392 0 0 .49694 937.83 365.57)" />
    <path
       id="rect3980"
       style="filter:url(#filter4039);stroke:#bca7bc;stroke-linecap:round;stroke-width:0.59883;fill:url(#linearGradient1053);fill-opacity:1"
       d="m-1802.8 45.55 315.84 28.832 554.3-28.832-440.55 78.554-130.2 77.345 570.74 100.06-583.17-57.664-286.96-31.187v-72.08-51.485z"
       sodipodi:nodetypes="ccccccccccc"
       inkscape:connector-curvature="0"
       transform="matrix(0.409 0 0 .49694 877.28 365.57)" />
    <path
       id="rect3982"
       style="filter:url(#filter4096);stroke:#bca7bc;stroke-linecap:round;stroke-width:0.83868;fill:#ffffff;fill-opacity:1"
       d="m-1022.9 267.9h247.06 210.11 412.72v178.37c-147.78 50.582-637.71 118.49 0 129.3-247.87 53.447-649.64 99.818 0 194.53h-489.49c-90.273-47.941-128.4-164.32-380.4 0v-218.77c758.44-46.741 44.194-75.951 0-113.14 758.94-36.25 414.94-102.31 0-170.29z"
       sodipodi:nodetypes="cccccccccccc"
       inkscape:connector-curvature="0"
       transform="matrix(.60370 0 0 .47760 923.41 365.67)" />
    <path
       id="rect3962"
       style="filter:url(#filter4766);stroke:#bca7bc;stroke-linecap:round;stroke-width:.83868;fill:url(#linearGradient4003)"
       d="m-1527.9-176.56c349.1 251.33 579.93 0 869.89 0-307.44 157.79-380.52 322.91 0 502.2l-311.74-109.1-558.15 109.09c75.472-162.01 340.87-310.45 0-502.2z"
       sodipodi:nodetypes="cccccc"
       inkscape:connector-curvature="0"
       transform="matrix(.54250 0 0 .16686 999.63 393.86)" />
    <path
       id="path4080"
       style="filter:url(#filter4084);stroke-width:0;fill:url(#linearGradient1055);fill-opacity:1.0"
       d="m-1231.7 614.11c-107.54 14.282-592.36 21.941-592.36 21.941l7.0519-24.031-7.0519-21.419s-49.363-23.509 21.156-21.941c70.519 1.5672 399.9-4.6209 521.84 4.7017 128.1 9.7938 139.04 28.838 49.363 40.748z"
       sodipodi:nodetypes="scccsss"
       inkscape:connector-curvature="0"
       transform="matrix(.47392 0 0 .49694 937.83 365.57)" />
    <path
       id="path4228"
       d="m-1658.5 886.86 234.99-123.68 41.226 103.07 148.42-123.68v123.68h169.03l4.1228 148.42h-601.91z"
       style="filter:url(#filter4230);stroke:#000000;stroke-width:1.0203px;fill:#fffffe;fill-opacity:1"
       transform="matrix(.47392 0 0 .49694 937.83 365.57)"
       inkscape:connector-curvature="0" />
    <path
       id="path3960"
       style="stroke:#000000;stroke-width:0.48529px;fill:#800000;fill-opacity:1"
       inkscape:connector-curvature="0"
       d="m150.8 808.22 109.15-60.239 19.149 50.199 68.937-60.239v60.239h78.512l1.9149 72.287h-279.58z" />
    <path
       id="path4270"
       style="filter:url(#filter4266);stroke:#bca7bc;stroke-linecap:round;stroke-width:.83868;fill:url(#linearGradient4544)"
       d="m-1490.7-130.98c221.77 228.53 542.66-45.584 832.63-45.584-307.44 157.79-380.52 322.91 0 502.2l-311.68-109.1-511.55 177.47c-20.802-215.19 14.785-67.333-9.3168-524.99z"
       sodipodi:nodetypes="cccccc"
       inkscape:connector-curvature="0"
       transform="matrix(-.50176 0 0 .078740 88.438 762.51)" />
    <g
       id="g4316"
       style="opacity:.24878"
       transform="matrix(-.20630 0 0 .26546 -220.49 609.61)">
      <g
         id="g4063"
         style="opacity:.8;stroke:#000000;stroke-width:2.0125"
         transform="matrix(-1.1135 0 0 .88690 -136.08 -406.83)">
        <path
           id="path3950"
           style="stroke:#000000;stroke-width:2.0125;fill:none"
           inkscape:connector-curvature="0"
           d="m1134.1 840.47 141.39-8.5789" />
        <path
           id="path3952"
           style="stroke:#000000;stroke-width:2.0125;fill:none"
           inkscape:connector-curvature="0"
           d="m1129.7 889.08 145.81-5.7192" />
        <path
           id="path3954"
           style="stroke:#000000;stroke-width:2.0125;fill:none"
           inkscape:connector-curvature="0"
           d="m1142.9 934.83 119.3-2.8596" />
        <path
           id="path3956"
           sodipodi:nodetypes="cccc"
           style="stroke:#000000;stroke-width:2.0125;fill:none"
           inkscape:connector-curvature="0"
           d="m1189.3 757.54 13.256-77.21 19.884 77.21z" />
        <g
           id="g4059"
           style="stroke:#000000;stroke-width:2.0125"
           transform="translate(1555.6 654.58)">
          <path
             id="path3948"
             d="m-434.81 947.04 72.906-480.42v-368.89l30.93-2.8596 4.4186 380.33 117.09 454.68-198.83-137.26 136.98-117.24-101.63-171.58 44.186-140.12-37.558-120.1 35.348-54.333-37.558-88.648 39.767-5.7192-35.348 91.508 37.558 85.789-41.976 102.95 48.604 134.4-77.325 160.14 134.77 125.82-181.32 152.19z"
             sodipodi:nodetypes="cccccccccccccccccccccc"
             style="stroke:#000000;stroke-width:2.0125;fill:none"
             inkscape:connector-curvature="0" />
          <path
             id="path3958"
             d="m1364.3-193.63-1719.6 298.07 18.144 6.2796 1795.5-279.26"
             sodipodi:nodetypes="cccc"
             style="stroke:#000000;stroke-width:2.0125;fill:none"
             inkscape:connector-curvature="0" />
        </g>
      </g>
      <g
         id="g4296"
         style="opacity:.8;filter:url(#filter4312);stroke:#000000;stroke-width:2.0125"
         transform="matrix(-1.1135 0 0 .88690 -136.08 -406.83)">
        <path
           id="path4298"
           d="m1134.1 840.47 141.39-8.5789"
           style="stroke:#000000;stroke-width:2.0125;fill:none"
           inkscape:connector-curvature="0" />
        <path
           id="path4300"
           d="m1129.7 889.08 145.81-5.7192"
           style="stroke:#000000;stroke-width:2.0125;fill:none"
           inkscape:connector-curvature="0" />
        <path
           id="path4302"
           d="m1142.9 934.83 119.3-2.8596"
           style="stroke:#000000;stroke-width:2.0125;fill:none"
           inkscape:connector-curvature="0" />
        <path
           id="path4304"
           d="m1189.3 757.54 13.256-77.21 19.884 77.21z"
           sodipodi:nodetypes="cccc"
           style="stroke:#000000;stroke-width:2.0125;fill:none"
           inkscape:connector-curvature="0" />
        <g
           id="g4306"
           style="stroke:#000000;stroke-width:2.0125"
           transform="translate(1555.6 654.58)">
          <path
             id="path4308"
             sodipodi:nodetypes="cccccccccccccccccccccc"
             style="stroke:#000000;stroke-width:2.0125;fill:none"
             inkscape:connector-curvature="0"
             d="m-434.81 947.04 72.906-480.42v-368.89l30.93-2.8596 4.4186 380.33 117.09 454.68-198.83-137.26 136.98-117.24-101.63-171.58 44.186-140.12-37.558-120.1 35.348-54.333-37.558-88.648 39.767-5.7192-35.348 91.508 37.558 85.789-41.976 102.95 48.604 134.4-77.325 160.14 134.77 125.82-172.99 109.55z" />
          <path
             id="path4310"
             sodipodi:nodetypes="cccc"
             style="stroke:#000000;stroke-width:2.0125;fill:none"
             inkscape:connector-curvature="0"
             d="m1364.3-219.22-1719.6 323.66 18.144 6.2796 1770.5-296.32" />
        </g>
      </g>
    </g>
    <g
       id="g4334"
       style="opacity:.26829"
       transform="matrix(-.42105 0 0 .35524 -144.18 517.31)">
      <g
         id="g4336"
         style="opacity:.8;stroke:#000000;stroke-width:2.0125"
         transform="matrix(-1.1135 0 0 .88690 -136.08 -406.83)">
        <path
           id="path4338"
           d="m1134.1 840.47 141.39-8.5789"
           style="stroke:#000000;stroke-width:2.0125;fill:none"
           inkscape:connector-curvature="0" />
        <path
           id="path4340"
           d="m1129.7 889.08 145.81-5.7192"
           style="stroke:#000000;stroke-width:2.0125;fill:none"
           inkscape:connector-curvature="0" />
        <path
           id="path4342"
           d="m1142.9 934.83 119.3-2.8596"
           style="stroke:#000000;stroke-width:2.0125;fill:none"
           inkscape:connector-curvature="0" />
        <path
           id="path4344"
           d="m1189.3 757.54 13.256-77.21 19.884 77.21z"
           sodipodi:nodetypes="cccc"
           style="stroke:#000000;stroke-width:2.0125;fill:none"
           inkscape:connector-curvature="0" />
        <g
           id="g4346"
           style="stroke:#000000;stroke-width:2.0125"
           transform="translate(1555.6 654.58)">
          <path
             id="path4348"
             sodipodi:nodetypes="cccccccccccccccccccccc"
             style="stroke:#000000;stroke-width:2.0125;fill:none"
             inkscape:connector-curvature="0"
             d="m-434.81 947.04 72.906-480.42v-368.89l30.93-2.8596 4.4186 380.33 117.09 454.68-198.83-137.26 136.98-117.24-101.63-171.58 44.186-140.12-37.558-120.1 35.348-54.333-37.558-88.648 39.767-5.7192-35.348 91.508 37.558 85.789-41.976 102.95 48.604 134.4-77.325 160.14 134.77 125.82-181.32 152.19z" />
          <path
             id="path4350"
             sodipodi:nodetypes="cccc"
             style="stroke:#000000;stroke-width:2.0125;fill:none"
             inkscape:connector-curvature="0"
             d="m284.83-196.72-640.22 301.16 18.144 6.2796 621.59-307.93" />
        </g>
      </g>
      <g
         id="g4352"
         style="opacity:.8;filter:url(#filter4312);stroke:#000000;stroke-width:2.0125"
         transform="matrix(-1.1135 0 0 .88690 -136.08 -406.83)">
        <path
           id="path4354"
           style="stroke:#000000;stroke-width:2.0125;fill:none"
           inkscape:connector-curvature="0"
           d="m1134.1 840.47 141.39-8.5789" />
        <path
           id="path4356"
           style="stroke:#000000;stroke-width:2.0125;fill:none"
           inkscape:connector-curvature="0"
           d="m1129.7 889.08 145.81-5.7192" />
        <path
           id="path4358"
           style="stroke:#000000;stroke-width:2.0125;fill:none"
           inkscape:connector-curvature="0"
           d="m1142.9 934.83 119.3-2.8596" />
        <path
           id="path4360"
           sodipodi:nodetypes="cccc"
           style="stroke:#000000;stroke-width:2.0125;fill:none"
           inkscape:connector-curvature="0"
           d="m1189.3 757.54 13.256-77.21 19.884 77.21z" />
        <g
           id="g4362"
           style="stroke:#000000;stroke-width:2.0125"
           transform="translate(1555.6 654.58)">
          <path
             id="path4364"
             d="m-434.81 947.04 72.906-480.42v-368.89l30.93-2.8596 4.4186 380.33 117.09 422.81-198.83-105.4 136.98-117.24-101.63-171.58 44.186-140.12-37.558-120.1 35.348-54.333-37.558-88.648 39.767-5.7192-35.348 91.508 37.558 85.789-41.976 102.95 48.604 134.4-77.325 160.14 134.77 125.82-169.07 133.07z"
             sodipodi:nodetypes="cccccccccccccccccccccc"
             style="stroke:#000000;stroke-width:2.0125;fill:none"
             inkscape:connector-curvature="0" />
          <path
             id="path4366"
             d="m264.41-171.23-619.8 275.66 18.144 6.2796 654.27-288.81"
             sodipodi:nodetypes="cccc"
             style="stroke:#000000;stroke-width:2.0125;fill:none"
             inkscape:connector-curvature="0" />
        </g>
      </g>
    </g>
    <path
       id="path4518"
       style="stroke:#000000;stroke-width:0.54213px;fill:#550000;"
       d="m-1031.7 1004.5 98.896-18.195 336.25 6.0649v-16.982l87.028 36.39 276.91-8.4909 205.7-12.13s102.85 65.501 19.779 65.501c-83.072 0-1831.5-1.2129-1831.5-1.2129v-43.668l51.426 12.13 83.072-13.343v8.4909l672.49-3.639z"
       sodipodi:nodetypes="cccccccsccccccc"
       inkscape:connector-curvature="0"
       transform="matrix(.46831 0 0 0.704 927.51 146.79)" />
    <path
       id="path4588"
       style="opacity:0;filter:url(#filter4214);stroke-width:0"
       d="m-1171.8 510.92c-6.7148 1.4412-16.174 1.5209-20.203-4.0406-19.897-27.463-1.7439-70.066 12.122-101.02 12.485-27.867 61.562-38.17 60.609-68.69-0.416-13.327-29.793-15.037-28.284-28.284 2.8756-25.249 57.767-15.943 64.65-40.406 4.0786-14.496-30.534-29.45-20.203-40.406 14.074-14.926 41.362 38.014 56.568 24.244 19.892-18.014-41.018-55.824-24.244-76.772 29.574-36.932 95.497 23.502 141.42 12.122 21.758-5.3919 34.412-39.768 56.569-36.365 20.795 3.1931 19.39 49.46 40.406 48.487 26.124-1.2084 18.362-62.78 44.447-64.65 23.768-1.7039 25.285 57.953 48.487 52.528 23.24-5.4337 0.46533-55.273 20.203-68.69 12.303-8.3636 29.757 1.6892 44.447 4.0406 17.744 2.8403 46.362-4.7567 52.528 12.122 6.9323 18.976-40.579 28.729-36.365 48.487 2.892 13.562 32.636 6.847 36.365 20.203 2.9202 10.459-17.604 17.522-16.162 28.284 2.7811 20.767 24.601 51.165 44.447 44.447 19.306-6.5356 4.0439-40.631 8.0812-60.609 3.0419-15.052 0.5848-34.311 12.122-44.447 29.622-26.023 84.277 5.5682 117.18-16.162 13.106-8.6567 11.746-30.892 24.244-40.406 20.021-15.241 48.46-13.541 72.731-20.203 97.006-26.627 192.46-58.068 291.34-79.016 7.0218-1.4875-5.5886-59.77 21.356-3.2958 33.248 69.686 40.869 35.487 40.869 35.487 16.816 184.27 12.235 182.81-33.859 253.54-12.023 18.45-26.137-3.3525-38.538 0-24.611 6.6536-44.438 25.038-66.065 38.538-16.839 10.511-29.712 32.295-49.549 33.032-57.158 2.1236-97.482-60.416-149.44-84.325-14.321-6.5898-29.378-20.795-44.447-16.162-28.585 8.7882-32.602 50.431-52.528 72.731-13.341 14.931-25.771 33.186-44.447 40.406-46.481 17.97-100.31 7.9826-149.5 0-12.613-2.0467-23.608-11.415-36.365-12.122-19.255-1.0664-37.311 11.116-56.569 12.122-37.877 1.9782-78.27 2.805-113.14-12.122-21.085-9.0267-29.701-42.212-52.528-44.447-13.801-1.351-23.468 15.111-36.365 20.203-30.992 12.236-64.064 29.447-96.975 24.244-12.55-1.9843-20.291-24.281-32.325-20.203-21.798 7.3864-12.357 44.941-24.244 64.65-8.3761 13.888-17.53 29.722-32.325 36.365-9.8293 4.414-25.139-8.0287-32.325 0-8.1341 9.0879 9.0132 25.229 4.0406 36.365-4.7239 10.58-16.956 17.772-28.284 20.203z"
       sodipodi:nodetypes="aaaaaaaaaaaaaaaaaaaaaaaaaaasssaaaaaaaaaaaaaaaaaaaa"
       inkscape:connector-curvature="0"
       transform="matrix(.49203 0 0 -.14530 958.92 1018.8)" />
    <g
       id="g4598"
       style="opacity:.39512"
       transform="matrix(-.20829 0 0 -.064663 -222.64 959.55)">
      <g
         id="g4600"
         style="opacity:.8;stroke:#000000;stroke-width:2.0125"
         transform="matrix(-1.1135 0 0 .88690 -136.08 -406.83)">
        <path
           id="path4602"
           d="m1134.1 840.47 141.39-8.5789"
           style="stroke:#000000;stroke-width:2.0125;fill:none"
           inkscape:connector-curvature="0" />
        <path
           id="path4604"
           d="m1129.7 889.08 145.81-5.7192"
           style="stroke:#000000;stroke-width:2.0125;fill:none"
           inkscape:connector-curvature="0" />
        <path
           id="path4606"
           d="m1142.9 934.83 119.3-2.8596"
           style="stroke:#000000;stroke-width:2.0125;fill:none"
           inkscape:connector-curvature="0" />
        <path
           id="path4608"
           d="m1189.3 757.54 13.256-77.21 19.884 77.21z"
           sodipodi:nodetypes="cccc"
           style="stroke:#000000;stroke-width:2.0125;fill:none"
           inkscape:connector-curvature="0" />
        <g
           id="g4610"
           style="stroke:#000000;stroke-width:2.0125"
           transform="translate(1555.6 654.58)" />
      </g>
      <g
         id="g4616"
         style="opacity:.8;filter:url(#filter4312);stroke:#000000;stroke-width:2.0125"
         transform="matrix(-1.1135 0 0 .88690 -136.08 -406.83)">
        <path
           id="path4618"
           style="stroke:#000000;stroke-width:2.0125;fill:none"
           inkscape:connector-curvature="0"
           d="m1134.1 840.47 141.39-8.5789" />
        <path
           id="path4620"
           style="stroke:#000000;stroke-width:2.0125;fill:none"
           inkscape:connector-curvature="0"
           d="m1129.7 889.08 145.81-5.7192" />
        <path
           id="path4622"
           style="stroke:#000000;stroke-width:2.0125;fill:none"
           inkscape:connector-curvature="0"
           d="m1142.9 934.83 119.3-2.8596" />
        <path
           id="path4624"
           sodipodi:nodetypes="cccc"
           style="stroke:#000000;stroke-width:2.0125;fill:none"
           inkscape:connector-curvature="0"
           d="m1189.3 757.54 13.256-77.21 19.884 77.21z" />
        <g
           id="g4626"
           style="stroke:#000000;stroke-width:2.0125"
           transform="translate(1555.6 654.58)" />
      </g>
    </g>
    <g
       id="g4368"
       style="filter:url(#filter4546);stroke:#452900;stroke-width:6.6892"
       transform="matrix(-.47281 0 0 .38515 88.038 478.71)">
      <g
         id="g4370"
         style="opacity:.8;stroke:#452900;stroke-width:6.7311"
         transform="matrix(-1.1135 0 0 .88690 -136.08 -406.83)">
        <path
           id="path4372"
           style="stroke:#452900;stroke-width:6.7311;fill:none"
           inkscape:connector-curvature="0"
           d="m1134.1 840.47 141.39-8.5789" />
        <path
           id="path4374"
           style="stroke:#452900;stroke-width:6.7311;fill:none"
           inkscape:connector-curvature="0"
           d="m1129.7 889.08 145.81-5.7192" />
        <path
           id="path4376"
           style="stroke:#452900;stroke-width:6.7311;fill:none"
           inkscape:connector-curvature="0"
           d="m1142.9 934.83 119.3-2.8596" />
        <path
           id="path4378"
           sodipodi:nodetypes="cccc"
           style="stroke:#452900;stroke-width:6.7311;fill:none"
           inkscape:connector-curvature="0"
           d="m1189.3 757.54 13.256-77.21 19.884 77.21z" />
        <g
           id="g4380"
           style="stroke:#452900;stroke-width:6.7311"
           transform="translate(1555.6 654.58)">
          <path
             id="path4382"
             d="m-434.81 947.04 72.906-480.42v-368.89l30.93-2.8596 4.4186 380.33 120.06 504.85-198.83-137.26 134.01-167.41-101.63-171.58 44.186-140.12-37.558-120.1 35.348-54.333-37.558-88.648 39.767-5.7192-35.348 91.508 37.558 85.789-41.976 102.95 48.604 134.4-77.325 160.14 134.77 125.82-181.32 152.19z"
             sodipodi:nodetypes="cccccccccccccccccccccc"
             style="stroke:#452900;stroke-width:6.7311;fill:none"
             inkscape:connector-curvature="0" />
          <path
             id="path4384"
             d="m-80.922-131.93-274.47 236.37 18.144 6.2796 265.89-177.92"
             sodipodi:nodetypes="cccc"
             style="stroke:#452900;stroke-width:6.7311;fill:none"
             inkscape:connector-curvature="0" />
        </g>
      </g>
      <g
         id="g4386"
         style="opacity:.8;filter:url(#filter4312);stroke:#452900;stroke-width:6.7311"
         transform="matrix(-1.1135 0 0 .88690 -136.08 -406.83)">
        <path
           id="path4388"
           d="m1134.1 840.47 141.39-8.5789"
           style="stroke:#452900;stroke-width:6.7311;fill:none"
           inkscape:connector-curvature="0" />
        <path
           id="path4390"
           d="m1129.7 889.08 145.81-5.7192"
           style="stroke:#452900;stroke-width:6.7311;fill:none"
           inkscape:connector-curvature="0" />
        <path
           id="path4392"
           d="m1142.9 934.83 119.3-2.8596"
           style="stroke:#452900;stroke-width:6.7311;fill:none"
           inkscape:connector-curvature="0" />
        <path
           id="path4394"
           d="m1189.3 757.54 13.256-77.21 19.884 77.21z"
           sodipodi:nodetypes="cccc"
           style="stroke:#452900;stroke-width:6.7311;fill:none"
           inkscape:connector-curvature="0" />
        <g
           id="g4396"
           style="stroke:#452900;stroke-width:6.7311"
           transform="translate(1555.6 654.58)">
          <path
             id="path4398"
             sodipodi:nodetypes="cccccccccccccccccccccc"
             style="stroke:#452900;stroke-width:6.7311;fill:none"
             inkscape:connector-curvature="0"
             d="m-434.81 947.04 72.906-480.42v-368.89l30.93-2.8596 4.4186 380.33 117.09 509.87-198.83-192.45 136.98-117.24-101.63-171.58 44.186-140.12-37.558-120.1 35.348-54.333-37.558-88.648 39.767-5.7192-35.348 91.508 37.558 85.789-41.976 102.95 48.604 134.4-77.325 160.14 134.77 125.82-181.32 152.19z" />
          <path
             id="path4400"
             sodipodi:nodetypes="cccc"
             style="stroke:#452900;stroke-width:6.7311;fill:none"
             inkscape:connector-curvature="0"
             d="m-89.829-146.98-265.56 251.42 18.144 6.2796 259.96-172.9" />
        </g>
      </g>
    </g>
    <ellipse
       style="opacity:1;fill:#fcee00;fill-opacity:1;fill-rule:nonzero;stroke:#000000;stroke-width:0.952;stroke-miterlimit:4;stroke-dasharray:none;stroke-opacity:1;filter:url(#filter1181)"
       id="path1071"
       cx="958.52087"
       cy="236.47929"
       rx="167.88878"
       ry="111.02242"
       transform="matrix(0.2622241,0,0,0.33593414,583.63254,241.96676)" />
  </g>
  <metadata
     id="metadata227">
    <rdf:RDF>
      <cc:Work>
        <dc:format>image/svg+xml</dc:format>
        <dc:type
           rdf:resource="http://purl.org/dc/dcmitype/StillImage" />
        <cc:license
           rdf:resource="http://creativecommons.org/licenses/publicdomain/" />
        <dc:publisher>
          <cc:Agent
             rdf:about="http://openclipart.org/">
            <dc:title>Openclipart</dc:title>
          </cc:Agent>
        </dc:publisher>
        <dc:title>Air Pollution</dc:title>
        <dc:date>2010-12-22T06:39:55</dc:date>
        <dc:description>Elements by NetAlloy</dc:description>
        <dc:source>https://openclipart.org/detail/101575/air-pollution-by-netalloy</dc:source>
        <dc:creator>
          <cc:Agent>
            <dc:title>netalloy</dc:title>
          </cc:Agent>
        </dc:creator>
        <dc:subject>
          <rdf:Bag>
            <rdf:li>CFC's</rdf:li>
            <rdf:li>Chlorofluorocarbons</rdf:li>
            <rdf:li>Nature</rdf:li>
            <rdf:li>Stratospheric ozone depletion</rdf:li>
            <rdf:li>aerosols</rdf:li>
            <rdf:li>air</rdf:li>
            <rdf:li>air dsipersion</rdf:li>
            <rdf:li>atmosphere</rdf:li>
            <rdf:li>carbon monoxide</rdf:li>
            <rdf:li>chemicals</rdf:li>
            <rdf:li>chimney</rdf:li>
            <rdf:li>co2</rdf:li>
            <rdf:li>dust</rdf:li>
            <rdf:li>ecology</rdf:li>
            <rdf:li>emissions</rdf:li>
            <rdf:li>environment</rdf:li>
            <rdf:li>environment policy</rdf:li>
            <rdf:li>free radicals</rdf:li>
            <rdf:li>fumes</rdf:li>
            <rdf:li>health effects</rdf:li>
            <rdf:li>industrial discharge</rdf:li>
            <rdf:li>kyoto</rdf:li>
            <rdf:li>ozone</rdf:li>
            <rdf:li>particulate matter</rdf:li>
            <rdf:li>poison</rdf:li>
            <rdf:li>pollutant</rdf:li>
            <rdf:li>pollution levels</rdf:li>
            <rdf:li>pullution of air</rdf:li>
            <rdf:li>save earth</rdf:li>
            <rdf:li>save planet</rdf:li>
            <rdf:li>scrubbers</rdf:li>
            <rdf:li>smoke</rdf:li>
            <rdf:li>social awareness</rdf:li>
            <rdf:li>social responsibility</rdf:li>
            <rdf:li>sulphides</rdf:li>
            <rdf:li>urban air quality</rdf:li>
          </rdf:Bag>
        </dc:subject>
      </cc:Work>
      <cc:License
         rdf:about="http://creativecommons.org/licenses/publicdomain/">
        <cc:permits
           rdf:resource="http://creativecommons.org/ns#Reproduction" />
        <cc:permits
           rdf:resource="http://creativecommons.org/ns#Distribution" />
        <cc:permits
           rdf:resource="http://creativecommons.org/ns#DerivativeWorks" />
      </cc:License>
    </rdf:RDF>
  </metadata>
</svg>
